<?xml version="1.0" encoding="iso-8859-1"?>
<!-- Uploaded to: SVG Repo, www.svgrepo.com, Generator: SVG Repo Mixer Tools -->
<svg height="800px" width="800px" version="1.1" id="Layer_1" xmlns="http://www.w3.org/2000/svg" xmlns:xlink="http://www.w3.org/1999/xlink" 
	 viewBox="0 0 512 512" xml:space="preserve">
<path style="fill:#22313F;" d="M309.52,470.846h-20.594c-10.766,0-19.494-8.728-19.494-19.494s8.728-19.494,19.494-19.494h20.594
	c36.554,0,66.294-29.739,66.294-66.294c0-10.766,8.728-19.494,19.494-19.494c10.766,0,19.494,8.728,19.494,19.494
	C414.801,423.617,367.572,470.846,309.52,470.846z"/>
<path style="fill:#2C3E50;" d="M395.307,219.632c-10.766,0-19.494-8.728-19.494-19.494v-24.8
	c0-66.065-53.748-119.813-119.814-119.813s-119.814,53.748-119.814,119.813v24.8c0,10.766-8.728,19.494-19.494,19.494
	s-19.494-8.728-19.494-19.494v-24.8c0-87.563,71.238-158.8,158.802-158.8s158.802,71.237,158.802,158.8v24.8
	C414.801,210.905,406.073,219.632,395.307,219.632z"/>
<path style="fill:#80D0E1;" d="M88.142,358.366H75.514C33.876,358.366,0,324.49,0,282.851s33.876-75.514,75.514-75.514h12.628
	c10.766,0,19.494,8.728,19.494,19.494v112.042C107.636,349.638,98.908,358.366,88.142,358.366z"/>
<path style="fill:#C7E9F4;" d="M145.242,385.059H88.142c-10.766,0-19.494-8.728-19.494-19.494V200.138
	c0-10.766,8.728-19.494,19.494-19.494h57.101c10.766,0,19.494,8.728,19.494,19.494v165.427
	C164.735,376.331,156.007,385.059,145.242,385.059z"/>
<path style="fill:#6A82A1;" d="M264.311,495.462h-16.623c-24.322,0-44.108-19.787-44.108-44.108
	c0-24.322,19.786-44.108,44.108-44.108h16.623c24.322,0,44.108,19.787,44.108,44.108S288.633,495.462,264.311,495.462z"/>
<path style="fill:#22313F;" d="M255.999,16.538c-0.001,0-0.003,0-0.004,0v38.987c0.001,0,0.003,0,0.004,0
	c66.065,0,119.814,53.748,119.814,119.813v24.8c0,10.766,8.728,19.494,19.494,19.494c10.766,0,19.494-8.728,19.494-19.494v-24.8
	C414.801,87.776,343.563,16.538,255.999,16.538z"/>
<path style="fill:#36495E;" d="M264.311,407.245h-8.316v88.216h8.316c24.322,0,44.108-19.787,44.108-44.108
	C308.419,427.031,288.633,407.245,264.311,407.245z"/>
<path style="fill:#51B3DA;" d="M436.486,358.366h-12.628c-10.766,0-19.494-8.728-19.494-19.494V226.83
	c0-10.766,8.728-19.494,19.494-19.494h12.628c41.638,0,75.514,33.876,75.514,75.514C512,324.49,478.124,358.366,436.486,358.366z"/>
<path style="fill:#80D0E1;" d="M423.858,385.059h-57.101c-10.766,0-19.494-8.728-19.494-19.494V200.138
	c0-10.766,8.728-19.494,19.494-19.494h57.101c10.766,0,19.494,8.728,19.494,19.494v165.427
	C443.351,376.331,434.623,385.059,423.858,385.059z"/>
</svg>